<svg width="1771" height="1776" viewBox="0 0 1771 1776" fill="none" xmlns="http://www.w3.org/2000/svg">
<line x1="1537.51" y1="860.306" x2="1566.96" y2="884.779" stroke="#FF9900" stroke-opacity="0.7" stroke-width="12" stroke-linecap="round"/>
<line x1="1575.84" y1="204.122" x2="1602.34" y2="231.772" stroke="#FF9900" stroke-opacity="0.7" stroke-width="12" stroke-linecap="round"/>
<line x1="652.686" y1="573.832" x2="679.185" y2="601.482" stroke="#FF9900" stroke-opacity="0.7" stroke-width="12" stroke-linecap="round"/>
<line x1="1574.51" y1="573.832" x2="1601.01" y2="601.482" stroke="#FF9900" stroke-opacity="0.7" stroke-width="12" stroke-linecap="round"/>
<line x1="1117.77" y1="573.832" x2="1144.27" y2="601.482" stroke="#FF9900" stroke-opacity="0.7" stroke-width="12" stroke-linecap="round"/>
<line x1="195.953" y1="944.23" x2="222.452" y2="971.881" stroke="#FF9900" stroke-opacity="0.7" stroke-width="12" stroke-linecap="round"/>
<line x1="1720.28" y1="1085.28" x2="1754.22" y2="1067.53" stroke="#FF9900" stroke-opacity="0.7" stroke-width="12" stroke-linecap="round"/>
<line x1="1720.28" y1="327.773" x2="1754.22" y2="310.017" stroke="#FF9900" stroke-opacity="0.7" stroke-width="12" stroke-linecap="round"/>
<line x1="1718.95" y1="1454.99" x2="1752.88" y2="1437.24" stroke="#FF9900" stroke-opacity="0.7" stroke-width="12" stroke-linecap="round"/>
<line x1="1728.95" y1="697.485" x2="1762.88" y2="679.729" stroke="#FF9900" stroke-opacity="0.7" stroke-width="12" stroke-linecap="round"/>
<line x1="340.392" y1="697.485" x2="374.325" y2="679.729" stroke="#FF9900" stroke-opacity="0.7" stroke-width="12" stroke-linecap="round"/>
<line x1="340.392" y1="1454.99" x2="374.325" y2="1437.24" stroke="#FF9900" stroke-opacity="0.7" stroke-width="12" stroke-linecap="round"/>
<line x1="340.392" y1="310.375" x2="374.325" y2="292.619" stroke="#FF9900" stroke-opacity="0.7" stroke-width="12" stroke-linecap="round"/>
<line x1="340.392" y1="1067.88" x2="374.325" y2="1050.13" stroke="#FF9900" stroke-opacity="0.7" stroke-width="12" stroke-linecap="round"/>
<line x1="1262.21" y1="1067.88" x2="1296.15" y2="1050.13" stroke="#FF9900" stroke-opacity="0.7" stroke-width="12" stroke-linecap="round"/>
<line x1="1262.21" y1="310.375" x2="1296.15" y2="292.619" stroke="#FF9900" stroke-opacity="0.7" stroke-width="12" stroke-linecap="round"/>
<line x1="798.104" y1="204.82" x2="836.077" y2="209.799" stroke="#FF9900" stroke-opacity="0.7" stroke-width="12" stroke-linecap="round"/>
<line x1="1719.92" y1="204.82" x2="1757.9" y2="209.799" stroke="#FF9900" stroke-opacity="0.7" stroke-width="12" stroke-linecap="round"/>
<line x1="796.767" y1="1332.04" x2="834.739" y2="1337.02" stroke="#FF9900" stroke-opacity="0.7" stroke-width="12" stroke-linecap="round"/>
<line x1="1504.73" y1="1051.83" x2="1542.7" y2="1056.81" stroke="#FF9900" stroke-opacity="0.7" stroke-width="12" stroke-linecap="round"/>
<line x1="1718.59" y1="574.529" x2="1756.56" y2="579.508" stroke="#FF9900" stroke-opacity="0.7" stroke-width="12" stroke-linecap="round"/>
<line x1="1261.85" y1="1332.04" x2="1299.83" y2="1337.02" stroke="#FF9900" stroke-opacity="0.7" stroke-width="12" stroke-linecap="round"/>
<line x1="648.313" y1="409.49" x2="654.766" y2="371.74" stroke="#FF9900" stroke-opacity="0.7" stroke-width="12" stroke-linecap="round"/>
<line x1="475.097" y1="1245.65" x2="481.55" y2="1207.9" stroke="#FF9900" stroke-opacity="0.7" stroke-width="12" stroke-linecap="round"/>
<line x1="599.166" y1="1629.34" x2="605.62" y2="1591.59" stroke="#FF9900" stroke-opacity="0.7" stroke-width="12" stroke-linecap="round"/>
<line x1="1419.1" y1="1649.65" x2="1425.55" y2="1611.9" stroke="#FF9900" stroke-opacity="0.7" stroke-width="12" stroke-linecap="round"/>
<line x1="1648.2" y1="1660.76" x2="1633.23" y2="1625.51" stroke="#FF9900" stroke-opacity="0.7" stroke-width="12" stroke-linecap="round"/>
<line x1="190.243" y1="779.201" x2="196.697" y2="741.451" stroke="#FF9900" stroke-opacity="0.7" stroke-width="12" stroke-linecap="round"/>
<line x1="1112.06" y1="1536.71" x2="1118.52" y2="1498.96" stroke="#FF9900" stroke-opacity="0.7" stroke-width="12" stroke-linecap="round"/>
<line x1="1317.58" y1="897.59" x2="1301.15" y2="862.993" stroke="#FF9900" stroke-opacity="0.7" stroke-width="12" stroke-linecap="round"/>
<line x1="579.139" y1="1436.39" x2="555.092" y2="1406.58" stroke="#FF9900" stroke-opacity="0.7" stroke-width="12" stroke-linecap="round"/>
<line x1="1461.28" y1="641.21" x2="1444.85" y2="606.613" stroke="#FF9900" stroke-opacity="0.7" stroke-width="12" stroke-linecap="round"/>
<line x1="82.7254" y1="1398.72" x2="66.301" y2="1364.12" stroke="#FF9900" stroke-opacity="0.7" stroke-width="12" stroke-linecap="round"/>
<line x1="1004.55" y1="1398.72" x2="988.123" y2="1364.12" stroke="#FF9900" stroke-opacity="0.7" stroke-width="12" stroke-linecap="round"/>
<line x1="82.7254" y1="1011.61" x2="66.301" y2="977.013" stroke="#FF9900" stroke-opacity="0.7" stroke-width="12" stroke-linecap="round"/>
<line x1="1004.55" y1="254.102" x2="988.123" y2="219.505" stroke="#FF9900" stroke-opacity="0.7" stroke-width="12" stroke-linecap="round"/>
<line x1="774.206" y1="6.74496" x2="801.935" y2="33.161" stroke="#FF9900" stroke-opacity="0.7" stroke-width="12" stroke-linecap="round"/>
<line x1="1662.42" y1="851.767" x2="1700.39" y2="846.746" stroke="#FF9900" stroke-opacity="0.7" stroke-width="12" stroke-linecap="round"/>
<line x1="739.267" y1="463.969" x2="777.234" y2="458.948" stroke="#FF9900" stroke-opacity="0.7" stroke-width="12" stroke-linecap="round"/>
<line x1="739.267" y1="1221.48" x2="777.234" y2="1216.46" stroke="#FF9900" stroke-opacity="0.7" stroke-width="12" stroke-linecap="round"/>
<line x1="1661.09" y1="1221.48" x2="1699.05" y2="1216.46" stroke="#FF9900" stroke-opacity="0.7" stroke-width="12" stroke-linecap="round"/>
<line x1="401.595" y1="499.479" x2="364.868" y2="488.624" stroke="#FF9900" stroke-opacity="0.7" stroke-width="12" stroke-linecap="round"/>
<line x1="282.534" y1="1221.48" x2="320.501" y2="1216.46" stroke="#FF9900" stroke-opacity="0.7" stroke-width="12" stroke-linecap="round"/>
<line x1="233.388" y1="1693.81" x2="271.355" y2="1688.79" stroke="#FF9900" stroke-opacity="0.7" stroke-width="12" stroke-linecap="round"/>
<line x1="911.708" y1="1748.08" x2="944.7" y2="1767.53" stroke="#FF9900" stroke-opacity="0.7" stroke-width="12" stroke-linecap="round"/>
<line x1="1204.35" y1="463.969" x2="1242.32" y2="458.948" stroke="#FF9900" stroke-opacity="0.7" stroke-width="12" stroke-linecap="round"/>
<line x1="282.534" y1="76.8596" x2="320.501" y2="71.8385" stroke="#FF9900" stroke-opacity="0.7" stroke-width="12" stroke-linecap="round"/>
<line x1="282.534" y1="834.368" x2="320.501" y2="829.347" stroke="#FF9900" stroke-opacity="0.7" stroke-width="12" stroke-linecap="round"/>
<line x1="1204.35" y1="76.8596" x2="1242.32" y2="71.8385" stroke="#FF9900" stroke-opacity="0.7" stroke-width="12" stroke-linecap="round"/>
<line x1="557.267" y1="162.488" x2="568.767" y2="125.958" stroke="#FF9900" stroke-opacity="0.7" stroke-width="12" stroke-linecap="round"/>
<line x1="1479.09" y1="162.488" x2="1490.59" y2="125.958" stroke="#FF9900" stroke-opacity="0.7" stroke-width="12" stroke-linecap="round"/>
<line x1="1477.75" y1="1299.71" x2="1489.25" y2="1263.18" stroke="#FF9900" stroke-opacity="0.7" stroke-width="12" stroke-linecap="round"/>
<line x1="1496.56" y1="318.049" x2="1523.17" y2="345.587" stroke="#FF9900" stroke-opacity="0.7" stroke-width="12" stroke-linecap="round"/>
<line x1="99.1964" y1="532.198" x2="110.697" y2="495.668" stroke="#FF9900" stroke-opacity="0.7" stroke-width="12" stroke-linecap="round"/>
<line x1="1021.02" y1="1289.71" x2="1032.52" y2="1253.18" stroke="#FF9900" stroke-opacity="0.7" stroke-width="12" stroke-linecap="round"/>
<line x1="1021.02" y1="532.198" x2="1032.52" y2="495.668" stroke="#FF9900" stroke-opacity="0.7" stroke-width="12" stroke-linecap="round"/>
<line x1="99.1964" y1="145.089" x2="110.697" y2="108.559" stroke="#FF9900" stroke-opacity="0.7" stroke-width="12" stroke-linecap="round"/>
<line x1="1426.76" y1="1490.31" x2="1414.27" y2="1454.11" stroke="#FF9900" stroke-opacity="0.7" stroke-width="12" stroke-linecap="round"/>
<line x1="1385.49" y1="760.201" x2="1418.04" y2="740.024" stroke="#FF9900" stroke-opacity="0.7" stroke-width="12" stroke-linecap="round"/>
<line x1="6.93868" y1="760.201" x2="39.4902" y2="740.024" stroke="#FF9900" stroke-opacity="0.7" stroke-width="12" stroke-linecap="round"/>
<line x1="16.4615" y1="1530.17" x2="24.5596" y2="1492.74" stroke="#FF9900" stroke-opacity="0.7" stroke-width="12" stroke-linecap="round"/>
<line x1="928.76" y1="1517.71" x2="961.312" y2="1497.53" stroke="#FF9900" stroke-opacity="0.7" stroke-width="12" stroke-linecap="round"/>
<line x1="25.8874" y1="348.041" x2="38.2248" y2="384.297" stroke="#FF9900" stroke-opacity="0.7" stroke-width="12" stroke-linecap="round"/>
<line x1="6.46323" y1="1123.13" x2="44.1447" y2="1116.29" stroke="#FF9900" stroke-opacity="0.7" stroke-width="12" stroke-linecap="round"/>
<line x1="928.76" y1="373.091" x2="961.312" y2="352.914" stroke="#FF9900" stroke-opacity="0.7" stroke-width="12" stroke-linecap="round"/>
</svg>
